<?xml version="1.0" encoding="utf-8"?>
<!-- Generator: Adobe Illustrator 22.1.0, SVG Export Plug-In . SVG Version: 6.00 Build 0)  -->
<svg version="1.1" id="Calque_1" xmlns="http://www.w3.org/2000/svg" xmlns:xlink="http://www.w3.org/1999/xlink" x="0px" y="0px"
	 viewBox="0 0 168.5 78" style="enable-background:new 0 0 168.5 78;" xml:space="preserve">
<style type="text/css">
	.st0{fill:#815938;}
	.st1{fill:#6B4A00;}
	.st2{fill:#937A56;}
	.st3{fill:#FFFFFF;}
	.st4{fill:#EFD5D5;}
	.st5{fill:#EDC0C0;}
	.st6{fill:#C19680;}
	.st7{fill:#9C8965;}
	.st8{fill:#FEFEFE;}
	.st9{fill:#847A61;}
	.st10{fill:#C5B791;}
	.st11{fill:#B7A67D;}
	.st12{fill:#EDE9DD;}
	.st13{fill:#A89566;}
	.st14{fill:#A28D5B;}
	.st15{fill:#D9CEAF;}
	.st16{fill:#E4DDC7;}
	.st17{fill:#F7F6F1;}
	.st18{fill:#B09E72;}
	.st19{fill:#FDFDFD;}
	.st20{fill:#F4F1EB;}
	.st21{fill:#FFCF87;}
</style>
<g>
	<g>
		<path class="st0" d="M157.3,73.4c-8,5-16.6,5.8-25.5,3.1c-8.6-2.5-14.8-10.3-15.8-19.4c-1.3-10.9,2.8-19.4,11.6-25.7
			c3.6-2.6,5.7-2.2,7.7,1.7c3.1,5.9,6.5,11.8,9,17.9c2.1,5.3,4.9,10.1,8.2,14.6c1.6,2.2,3.5,4.1,5.2,6.2c12.7-9.8,13.6-28.1,0-38.7
			c-6.1-4.8-13-5.6-20.3-4.4c-1.8,0.3-2.9-0.2-3.5-1.9c-1.3-3.7-2.6-7.4-3.7-11.1c-0.7-2.4,0-3.3,2.5-3.8c2.6-0.6,5.3-0.9,8-1.3
			c0.6-0.1,1.2-0.2,1.7-0.6c-5.4,0-10.8,0-16.2,0c0.9,4.9,0.9,4.9-3.6,7.4c-9.5,5.3-19,10.5-28.5,15.8c-1,0.6-2.4,1-1.2,2.9
			c4.2-2.1,8.4-4.2,12.5-6.4c5.7-3,11.4-6.2,17.1-9.3c0.8-0.4,1.5-0.9,2.3-1.1c1.2-0.4,3.5-1.1,3.7-0.8c0.9,1.6,1.8,3.6,1.6,5.3
			c-0.2,1.7-1.4,3.6-2.7,4.9c-8.5,8.3-17.2,16.5-25.8,24.7c-0.7,0.7-1.9,1-2.9,1.6c-1.3-5.7,1.1-10.4,6.2-13.6
			c-1.5-0.2-2.9-0.5-4.4-0.4c-0.5,0-1.2,1.1-1.3,1.7c-1,5.4-1.9,10.8-2.9,16.2c-0.4,2-0.7,3.9-1.3,5.8c-0.2,0.6-0.9,1.4-1.4,1.5
			c-1.5,0.2-3.1,0.1-4.7,0.1c-0.4,0-1-0.4-1.1-0.7c-0.1-0.3,0.2-1,0.5-1.2c5.1-3.1,5.5-8,5.1-13.2c-0.3-4.5-0.8-8.9-1.2-13.6
			c-2,0.8-3.6,1.4-5.2,1.9c-0.5,0.2-1.2-0.1-1.7-0.2c0.2-0.6,0.2-1.3,0.5-1.6c1.1-1,2.3-2,3.6-2.7c1.9-0.9,2-2.2,1.6-4
			c-1.2-5.1-2.3-10.2-3.4-15.2c-0.4-1.9-0.7-3.8-1.3-5.6c-0.5-1.7,0.1-2.5,1.6-2.8c1.4-0.3,2.8-0.4,4.2-0.6c0.9-0.1,1.7-0.3,2.6-0.8
			c-3.2-0.5-6.5-0.7-9.6-1.4c-2.9-0.7-5.7-1.9-8.5-2.9c-1.1-0.4-2.2-1.2-2.9,0.4c-0.7,1.5-0.1,3.6,1.2,4c0.9,0.3,1.8,0.3,2.7,0.3
			c4.6-0.1,7.1,2.2,7.2,6.8c0.2,5.4-1.6,10.2-3.7,15c-0.8,1.7-1.7,3.4-2.7,5.2c5,4.1,8.2,9.3,9.5,15.6c2,9.5-2.8,21.1-11.3,25.9
			c-2.4,1.4-5.5,1.8-8.3,2.4c-2.1,0.4-3.7-0.7-4.7-2.7c-2.2-4.5-2.3-9.2-1.6-14c0.2-1.4,0.5-2.8,0.7-4.2c-4.3,0.3-5.9-0.4-6.3-2.5
			c-0.3-1.5,0.9-3.2,2.8-3.7c2.2-0.6,2.8-0.1,4.7,4.4c4.5-7,8.7-13.7,13.1-20.5c-0.6-0.5-0.9-0.9-1.3-1.1c-8.6-5.3-23.5-4-31.3,2.5
			c-9.4,7.7-10.2,21.9-5.9,30.4c1.4,2.8,3.8,5.1,5.6,7.7c0.6,0.9,1.6,2.1,1.4,2.8c-0.2,0.7-1.7,1.3-2.7,1.5
			c-1.2,0.3-2.4,0.3-3.6,0.3C27,77.7,14.5,77.6,2,77.6c-0.6,0-1.3-0.1-1.9-0.1C0,77.3,0,77.1,0,77c0.7-0.1,1.4-0.2,2-0.2
			c12.3,0,24.6,0.1,36.9,0.1c2.1,0,4.1-0.3,6.2-0.5c0.1-0.3,0.1-0.5,0.2-0.8c-0.5-0.6-0.8-1.2-1.4-1.7c-6.8-5.9-8.9-13.5-8.3-22.2
			c1.2-17,15.8-24.9,31-23c3.7,0.5,7.3,2,11.4,3.1c2.4-3.9,4.4-8.5,5.5-13.6c0.6-2.8,1-5.5-0.2-8.2C82.4,8,80.8,7,78.4,7
			c-0.8,0-1.6,0.1-2.4,0C73,6.8,71.4,3.8,73,1.1c0.8-1.4,2.3-1.3,3.4-0.7c5.8,3.4,12.4,3.7,18.8,4.5c0.7,0.1,1.3,0.3,2.4,0.5
			c-1.6,1.8-3.6,1.8-5.3,2.1c-1.2,0.2-2.4,0.2-3.6,0.4c-1.5,0.2-1.8,0.9-1.5,2.4c1.5,6.1,2.9,12.2,4.3,18.3c0.3,1.3,0.5,2.7,0.8,4.4
			c0.9-0.5,1.7-0.9,2.5-1.3c9.7-5.4,19.4-10.9,29.2-16.2c1.9-1.1,2.6-2.2,1.6-4.3c-0.7-1.3-0.7-2.3,1.3-2.3c4.7,0,9.4,0,14.1,0
			c0.6,0,1.2-0.1,1.7,0.1c0.5,0.1,0.9,0.6,1.3,0.9c-0.4,0.4-0.8,1.1-1.2,1.2c-2.8,0.5-5.6,0.9-8.5,1.3c-3.3,0.6-3.8,1.3-2.9,4.4
			c0.9,3.2,2.1,6.3,3.3,9.5c0.5,1.3,1.2,1.8,2.8,1.5c9.5-1.5,17.8,0.7,24.5,8c9.1,9.9,8.6,26-1.5,35c-0.4,0.3-0.8,0.5-1.7,1.1
			 M143.2,50.8c-0.1-0.6-0.1-0.8-0.3-1.1c-3-5.7-5.9-11.4-9-17c-1.3-2.3-2.8-2.6-5.2-1c-6.8,4.5-11.3,10.5-12,18.8
			c-0.8,8.7,1.7,16.5,8.9,22c4.7,3.6,10.3,4.6,16.2,4.6c5.7-0.1,10.9-1.6,15.8-5c-6.1-4.4-9.3-10.7-12.8-16.9
			c-3.1,2.6-5.1,3-6.9,1.3c-1.6-1.5-2-3.9-0.9-5.4C138.4,49.1,140.1,49,143.2,50.8z M77.9,34.2c-0.5,0.7-0.8,1.3-1.2,1.9
			c-3.4,5.4-6.8,10.7-10.2,16.1c-0.8,1.2-2.3,2.1-2.5,3.3c-0.8,4.5-1.9,8.9-1,13.6c1.3,6.7,3.7,8.5,10.2,6.2
			c6.8-2.4,10.6-7.7,13-14.2C89.7,51.8,85.9,39.4,77.9,34.2z M88.7,64.9c0.2,0.1,0.3,0.3,0.5,0.4c0.6,0,1.1,0,1.7,0
			c3.4-0.1,3.1,0.7,3.9-3c1.2-6.4,2.3-12.8,3.5-19.2c0.7-3.6,1.2-3.9,4.9-3.3c0.6,0.1,1.2,0.2,1.6,0.4c0.6,0.3,1,0.9,1.6,1.3
			c-0.5,0.4-0.9,1-1.5,1.3c-3.8,1.6-6.1,6-5.2,10.6c0.5-0.3,1.1-0.5,1.4-0.8c8.6-8.2,17.2-16.4,25.8-24.7c1.1-1.1,2.2-2.6,2.5-4.1
			c0.3-1.4-0.4-3-1.1-4.4c-0.1-0.2-2,0.2-3,0.6c-0.8,0.2-1.5,0.7-2.3,1.1c-9.4,5-18.8,10-28.2,14.8c-1.5,0.8-1.8,1.5-1.6,3.1
			c0.5,4,1,7.9,1.2,11.9C94.6,56.4,94.4,61.7,88.7,64.9z M140.9,57c1-1,2.3-1.9,3-3.1c0.5-0.9-2.4-3.4-3.8-3.5
			c-1.3-0.1-2.8,1.3-2.8,2.7C137.2,54.6,139,56.5,140.9,57z M60,56.4c1.2-1.2,2.5-1.8,2.7-2.6c0.3-1.5-1.3-3.5-2.4-3.1
			c-1.1,0.5-2.5,1.4-2.7,2.4C57.5,53.9,58.9,55,60,56.4z M91.2,34.6c-1.7,1.2-3.3,2.3-5.4,3.7C89.9,37.9,91.8,36.6,91.2,34.6z"/>
	</g>
</g>
</svg>
