<?xml version="1.0" encoding="utf-8"?>
<!-- Generator: Adobe Illustrator 22.1.0, SVG Export Plug-In . SVG Version: 6.00 Build 0)  -->
<svg version="1.1" id="Calque_1" xmlns="http://www.w3.org/2000/svg" xmlns:xlink="http://www.w3.org/1999/xlink" x="0px" y="0px"
	 viewBox="0 0 125.8 106" style="enable-background:new 0 0 125.8 106;" xml:space="preserve">
<style type="text/css">
	.st0{fill:#815938;}
	.st1{fill:#6B4A00;}
	.st2{fill:#937A56;}
	.st3{fill:#FFFFFF;}
	.st4{fill:#EFD5D5;}
	.st5{fill:#EDC0C0;}
	.st6{fill:#C19680;}
	.st7{fill:#9C8965;}
	.st8{fill:#FEFEFE;}
	.st9{fill:#847A61;}
	.st10{fill:#C5B791;}
	.st11{fill:#B7A67D;}
	.st12{fill:#EDE9DD;}
	.st13{fill:#A89566;}
	.st14{fill:#A28D5B;}
	.st15{fill:#D9CEAF;}
	.st16{fill:#E4DDC7;}
	.st17{fill:#F7F6F1;}
	.st18{fill:#B09E72;}
	.st19{fill:#FDFDFD;}
	.st20{fill:#F4F1EB;}
	.st21{fill:#FFCF87;}
</style>
<g>
	<g>
		<path class="st0" d="M74.1,61c-2.3-1.3-4.5-2.7-6.8-3.8c-2.2-1-4.1-3.3-7-1.8c-0.2,0.1-0.7-0.2-0.8-0.5c-0.1-0.2,0.1-0.9,0.2-0.9
			c3.5-0.8,2.6-4.3,4.1-6.3c-5.7,6.4-9.5,13.8-12.7,21.8c5.6,1,9.9,5.3,16.3,5.1c-0.5-1.5-0.9-2.7-1.3-3.8c0.6,0.7,1.3,1.2,1.6,2
			c0.8,1.7,0.1,2.8-1.7,2.5c-2.4-0.4-4.7-1.2-7-2c-2-0.7-4-1.7-6-2.6c-1.6-0.7-2.5-0.4-3.4,1.3c-2.7,5.3-6.5,9.8-11.1,13.5
			c0.6-0.8,1.1-1.6,1.7-2.4c1.7-2.3,3.5-4.5,5.3-6.8c0.6-1.4,1.2-2.7,1.8-4.1c3.8-3.4,4.8-8.3,7.4-12.4c4.2-6.9,8.7-13.5,13.2-20.4
			c-2.6-2.8-2.7-3.6-0.6-6c-0.2,1-0.6,1.9-0.5,2.9c0,1.7,1.8,2.9,2.7,1.9c1.8-2.2,3.3-4.6,5-7c-0.3-0.3-0.6-0.6-0.9-0.9
			c-2.1,1.1-4.2,2.1-6.3,3.2c1.9-1.2,3.7-2.5,5.6-3.5c0.6-0.3,1.7,0.4,2.6,0.7c-0.4-2.2-2.1-2.5-3.8-1.8c-2.4,1-4.7,2.3-7,3.6
			c-3,1.9-5.8,4-8.7,6c0,0-0.2-0.2-0.2-0.2c4.5-3.2,9-6.4,13.6-9.5c0.5-0.4,1.2-0.7,1.8-0.6c1.5,0.2,3.5,0.2,4.4,1.1
			c0.7,0.7,0.3,3.1-0.3,4.2c-1.2,2-3,3.6-4.6,5.3c-1.2,1.3-2.5,2.6-4.1,4.4c18.1-2.7,35.6-5.4,53.1-8c1.1-0.2,2.1-0.4,3.2-0.7
			c1.9-0.5,2.7-1.8,2.4-3.7c-1.1-8.7-2.2-17.3-3.4-26c-0.6-4.2-1.5-4.7-5.7-4c-6.4,1.1-12.7,2.1-19.1,3.2C86.3,6,75.7,7.6,65.1,9.7
			c-6.4,1.3-6,0.6-5.2,7.1c0.1,0.9,0.1,1.8-0.4,2.7c-0.3-2.5-0.8-5.1-0.7-7.6c0-0.8,1.6-1.9,2.7-2.1c5.4-1.2,10.9-2.3,16.3-3.2
			c13.1-2.2,26.2-4.3,39.3-6.4c3.8-0.6,4.6,0.1,5.2,3.8c1.2,8.7,2.3,17.3,3.4,26c0.5,4.1-0.2,5-4.3,5.7c-11.2,1.8-22.5,3.4-33.7,5.1
			c-4.5,0.7-9,1.3-13.4,1.9c4.4,3.1,8.5,6.1,12.7,9c-3.2-2-6.3-4.1-9.6-5.9c-5.2-2.9-6.4-2.7-10.8,1.4c1-1.2,1.9-2.4,2.7-3.5
			c-2.6-0.1-4.2,2.1-6.7,9.6C66.5,56,70.3,58.5,74.1,61z"/>
		<path class="st0" d="M53.7,33.8c-1.7,1-3.4,1.9-5.1,2.9c-0.2,2.4-0.4,4.8-0.7,7.4c2.6-1.9,5.2-3.7,7.8-5.6c0,0,0.2,0.2,0.2,0.2
			c-1.2,1.1-2.5,2.1-3.7,3.2c-2.6,2.5-5.1,5.1-7.7,7.6c-0.8,0.8-1.7,1.5-2.6,2.3c-0.2-0.2-0.5-0.4-0.7-0.6c0.9-1.1,1.6-2.4,2.7-3.2
			c3.5-2.6,3.9-6.2,3.7-10c0-0.7-0.8-1.4-1.2-2.2c-0.4-0.9-0.8-1.9-1.1-2.9c0.4-0.2,0.7-0.4,1.1-0.6c0.7,1,1.4,1.9,2.4,3.2
			c1.5-0.6,3.1-1.3,4.8-2C53.5,33.6,53.6,33.7,53.7,33.8z"/>
		<path class="st0" d="M60.7,22.1c-4.6,1.3-9.3,2.3-13.7,3.9c-4.9,1.8-9.6,4.2-14.4,6.3c-4.1,1.8-7.5,4.4-9.5,8.5
			c-0.1-0.1-0.2-0.2-0.3-0.2c0.9-3.3,3.1-5.7,6-7c9-4,18.1-7.9,27.3-11.6C57.4,21.5,59.1,22.1,60.7,22.1
			C60.6,22.2,60.7,22.1,60.7,22.1z"/>
		<path class="st0" d="M66.2,70.9c-3.2-2.9-6.4-5.7-9-8.1c6.8,2.5,14.3,5.3,21.8,8.1c0.3-0.3,0.6-0.6,0.9-0.9
			c-0.6-1.8-1.2-3.6-1.8-5.5c0.3,0.3,0.7,0.5,0.8,0.8c0.5,1.7,0.9,3.3,1.4,5c-1.6,0-3.3,0.4-4.8-0.1c-4.2-1.2-8.4-2.8-12.8-4.3
			C63.9,67.7,65,69.3,66.2,70.9z"/>
		<path class="st0" d="M12,73.1c-1.5,4.5-2.9,8.9-4.4,13.4c-2,5.8-4.1,11.6-6.1,17.4c-0.3,0.8-0.6,1.6-1.5,2.1
			c2.2-6.4,4.5-12.7,6.7-19.1c1.7-4.7,3.4-9.3,5.1-14L12,73.1z"/>
		<path class="st0" d="M11.9,72.9c3.6-10.8,7.3-21.5,10.9-32.3c0.1,0.1,0.2,0.2,0.3,0.2c-3.4,10.2-6.8,20.4-10.2,30.6
			c-0.2,0.6-0.6,1.1-0.8,1.6C12,73.1,11.9,72.9,11.9,72.9z"/>
		<path class="st0" d="M69.3,51.1c4.1,1.6,8.2,3.4,12.4,4.7c2.7,0.9,5.7,1.2,8.5,1.7c0.2-0.4,0.4-0.7,0.5-1.1
			c-1.3-1.6-2.5-3.3-3.8-4.9c1.3,1.1,2.7,2.1,3.8,3.4c1.3,1.6,0.6,2.9-1.4,2.9c-1.9,0-3.9-0.1-5.6-0.8
			C78.8,55.3,74.1,53.2,69.3,51.1z"/>
		<path class="st0" d="M53.4,33.5c1-0.7,1.9-1.5,2.9-2c3.9-2,5.5-5.1,4.4-9.4c0,0-0.1,0-0.1,0c1.8,2.2,1.5,5.7-0.9,7.6
			c-1.9,1.5-4.1,2.7-6.1,4C53.6,33.7,53.5,33.6,53.4,33.5z"/>
		<path class="st0" d="M45.5,76.5c-1.5,1.5-3,3-4.6,4.5c2.1-2.9,4.3-5.7,6.4-8.6C46.7,73.7,46.1,75.1,45.5,76.5z"/>
		<path class="st0" d="M39.6,82.3c-0.7,1-1.5,1.9-2.3,3c0.5,0.1,0.8,0.2,1.2,0.3c-1.1,0.9-2.2,1.7-3.2,2.6c-0.2-0.2-0.4-0.4-0.6-0.6
			C35.9,85.4,37.3,83.4,39.6,82.3z"/>
	</g>
</g>
<g>
	<path class="st0" d="M99.3,24.6l0.1,1.7c-0.5,0.5-1.1,1-1.8,1.4c-0.7,0.4-1.4,0.6-2.1,0.7c-1.7,0.2-3.2-0.2-4.5-1.3
		c-1.3-1.1-2.2-2.6-2.8-4.6l-1.9,0.2l0.1-1.1l1.5-0.2c0-0.1,0-0.2,0-0.3c0-0.1,0-0.3-0.1-0.5c0-0.1,0-0.3,0-0.4s0-0.4,0-0.6
		l-1.8,0.2l0.1-1.2l1.7-0.2c0.1-2,0.7-3.7,1.8-5c1-1.3,2.4-2,4-2.2c0.8-0.1,1.6,0,2.3,0.2s1.4,0.6,2,1.1l0.2,1.7
		c-0.7-0.6-1.4-1.1-2.1-1.4s-1.4-0.4-2.1-0.3c-1.3,0.1-2.4,0.7-3.2,1.7s-1.3,2.3-1.4,4l7.4-0.8l-0.2,1.2l-7.2,0.8c0,0.3,0,0.5,0,0.6
		c0,0.1,0,0.3,0,0.4c0,0.2,0,0.4,0.1,0.5c0,0.1,0,0.2,0,0.3l6.7-0.7L96,21.6l-6.2,0.7c0.4,1.6,1.2,2.9,2.2,3.7
		c1,0.9,2.1,1.2,3.4,1.1c0.8-0.1,1.5-0.3,2.2-0.7C98.2,25.9,98.8,25.3,99.3,24.6z"/>
</g>
</svg>
