<?xml version="1.0" encoding="utf-8"?>
<!-- Generator: Adobe Illustrator 22.1.0, SVG Export Plug-In . SVG Version: 6.00 Build 0)  -->
<svg version="1.1" id="Calque_1" xmlns="http://www.w3.org/2000/svg" xmlns:xlink="http://www.w3.org/1999/xlink" x="0px" y="0px"
	 viewBox="0 0 35 55.2" style="enable-background:new 0 0 35 55.2;" xml:space="preserve">
<style type="text/css">
	.st0{fill:#815938;}
	.st1{fill:#6B4A00;}
	.st2{fill:#937A56;}
	.st3{fill:#FFFFFF;}
	.st4{fill:#EFD5D5;}
	.st5{fill:#EDC0C0;}
	.st6{fill:#C19680;}
	.st7{fill:#9C8965;}
	.st8{fill:#FEFEFE;}
	.st9{fill:#847A61;}
	.st10{fill:#C5B791;}
	.st11{fill:#B7A67D;}
	.st12{fill:#EDE9DD;}
	.st13{fill:#A89566;}
	.st14{fill:#A28D5B;}
	.st15{fill:#D9CEAF;}
	.st16{fill:#E4DDC7;}
	.st17{fill:#F7F6F1;}
	.st18{fill:#B09E72;}
	.st19{fill:#FDFDFD;}
	.st20{fill:#F4F1EB;}
	.st21{fill:#FFCF87;}
</style>
<g>
	<path class="st6" d="M0,26.1l12.9,11.5c6.1,5.2,12.2,10.5,18.2,15.8c0.7,0.6,1.5,1.2,2.3,1.8c0-0.8-0.3-1.3-0.6-1.7
		C27.6,46.8,22.3,40,17,33.2c-3.6-4.6-3.6-8.1,0.3-12.5c5.4-6.2,10.8-12.4,16.1-18.6C34,1.4,34.5,0.7,35,0c-0.9,0-1.3,0.2-1.7,0.5
		c-6.9,5.4-13.8,10.7-20.7,16.1L0,26.1z"/>
</g>
</svg>
