<?xml version="1.0" encoding="utf-8"?>
<!-- Generator: Adobe Illustrator 22.1.0, SVG Export Plug-In . SVG Version: 6.00 Build 0)  -->
<svg version="1.1" id="Calque_1" xmlns="http://www.w3.org/2000/svg" xmlns:xlink="http://www.w3.org/1999/xlink" x="0px" y="0px"
	 viewBox="0 0 159 185" style="enable-background:new 0 0 159 185;" xml:space="preserve">
<style type="text/css">
	.st0{fill:#815938;}
	.st1{fill:#6B4A00;}
	.st2{fill:#937A56;}
	.st3{fill:#FFFFFF;}
	.st4{fill:#EFD5D5;}
	.st5{fill:#EDC0C0;}
	.st6{fill:#C19680;}
	.st7{fill:#9C8965;}
	.st8{fill:#FEFEFE;}
	.st9{fill:#847A61;}
	.st10{fill:#C5B791;}
	.st11{fill:#B7A67D;}
	.st12{fill:#EDE9DD;}
	.st13{fill:#A89566;}
	.st14{fill:#A28D5B;}
	.st15{fill:#D9CEAF;}
	.st16{fill:#E4DDC7;}
	.st17{fill:#F7F6F1;}
	.st18{fill:#B09E72;}
	.st19{fill:#FDFDFD;}
	.st20{fill:#F4F1EB;}
	.st21{fill:#FFCF87;}
</style>
<g>
	<g>
		<g>
			<path d="M19.6,134c0.1-0.1,0.3-0.3,0.4-0.3c3.1-0.7,5.4-2.6,7.3-5c3.6-4.6,7.2-9.3,10.5-14c3.8-5.4,7.2-11.1,12.3-15.5
				c4.1-3.5,8.4-6.5,13.8-7.7c3.5-0.8,6.8-0.3,10.2,0.9c2.7,1,5.6,1.8,8.5,2.3c2.6,0.5,5.2-0.1,7.5-1.4c10.4-5.9,18.8-2.8,26.6,4.5
				c5.8,5.4,10.2,11.8,14.8,18.1c3.1,4.2,6.2,8.4,9.7,12.4c1.9,2.2,4.4,3.9,6.8,6c-0.5,2.1-2.1,4-4,5.8
				c-14.3,13.8-30.2,25.4-48.3,33.9c-1.6,0.7-3.3,1.3-4.9,1.9c-7.3,2.7-14.3,1.5-21.3-1c-9.6-3.4-18-8.9-26-15
				C35,153.2,27.2,146,20.1,138c-0.7-0.8-1.3-1.8-2.1-3c2.4,0.4,4.3,0.7,6.6,1c-0.5-0.6-0.8-0.8-1.2-1.3c0.5,0,0.8-0.1,0.9,0
				c2.4,1.7,5.1,1.2,7.7,1.1c7.5-0.5,15-1.4,22.2-3.6c1.8-0.6,3.6-1.5,5.2-2.5c4.8-3.1,10-5.4,15.5-6.8c1.2-0.3,2.7,0,3.8,0.5
				c2.6,1.2,5.1,1.4,7.7,0.2c2.2-1,4.4-0.9,6.5,0.1c2.3,1.2,4.5,2.6,6.7,4c2.5,1.7,4.8,3.6,7.3,5.3c0.5,0.4,1.3,0.4,2,0.6
				c1.9,0.4,3.9,0.3,5.5,1.1c9.6,4.5,19.3,4.1,29.1,1.1c0.8-0.2,1.5-0.5,2.3-0.8c0.3-0.1,0.6-0.4,1-0.7
				c-7.9-5.2-12.5-13.2-17.9-20.4c-4-5.4-8-10.9-13-15.5c-3.6-3.3-7.6-6.1-12.6-7c-3.9-0.7-7.7,0-11,1.9c-5.5,3.1-11.2,3.3-16.7,0.7
				c-7.9-3.7-14.7-1.7-21.3,2.9c-5.9,4.1-10.2,9.7-14,15.6c-3.9,6-7.7,12.1-12.7,17.2c-1.7,1.7-3.9,3-5.9,4.4
				c-0.5,0.4-1.3,0.4-1.9,0.5C19.7,134.3,19.6,134.2,19.6,134z M146.5,136c-0.1-0.1-0.2-0.2-0.3-0.3c-0.1,0-0.3,0-0.4,0.1
				c-0.4,0.2-0.8,0.4-1.1,0.6c-4.7,2.5-9.7,3.9-15,4.1c-7.4,0.3-14.3-1.7-20.7-5.4c-0.9-0.5-1.8-0.7-2.7-0.3c-2.5,1.1-5,2.1-7.3,3.5
				c-4,2.4-8.3,4.1-12.9,4.6c-7.2,0.8-13.8-0.5-19.7-5.3c-4-3.3-8.9-4.7-14.2-2.8c-2.3,0.8-4.7,1.6-7.1,2.3
				c-5.6,1.6-11.3,1.9-17,0.2c-2.7-0.8-5.6-0.8-8.7-1.3c8.1,9.2,16.7,17.3,26.2,24.4c7.6,5.7,15.6,10.7,24.7,13.9
				c4.8,1.7,9.8,3.1,15,2.1c3.5-0.7,7-1.7,10.2-3.2c17.5-8,32.8-19.3,46.8-32.5C143.8,139.3,145.1,137.6,146.5,136z M29.6,136.8
				c3.5,1,6.8,1.2,10.1,0.5c4.5-1,8.9-2.3,13.3-3.6c2.3-0.7,4.6-0.7,6.9-0.1c2.9,0.8,5.6,2.1,8,4c1.3,1.1,2.8,2,4.3,2.7
				c7.3,3,14.6,2.6,21.7-0.4c4.3-1.8,8.3-4.3,12.2-6.4c-2.6-2-5.3-4.3-8.2-6.3c-1.8-1.3-3.9-2.2-5.9-3.1c-1.6-0.8-3.3-0.7-5,0
				c-3,1.4-5.8,1.3-8.8-0.2c-0.9-0.5-2.3-0.6-3.3-0.3c-5.3,1.4-10.3,3.6-15,6.6c-1.7,1.1-3.6,2.1-5.5,2.6c-4.2,1.1-8.4,2-12.7,2.7
				C37.9,136.1,33.9,136.4,29.6,136.8z M109.7,134c0,0.2-0.1,0.4-0.1,0.5c9.5,5.2,19.5,6.8,30,3.2c-2.6,0.3-5.1,0.7-7.7,0.9
				c-5.9,0.4-11.5-0.7-16.9-3.1C113.2,134.9,111.4,134.5,109.7,134z"/>
		</g>
	</g>
</g>
<g>
	<path class="st6" d="M83.4,15.4c0.3,2.8,0.5,5.7,0.8,8.5c0.1,0.7,0.1,1.4,0.2,2.1c0.2,1.9,1.2,2.9,3.1,3.1c3.3,0.4,6.7,0.7,10,1
		c0.2,0,0.4,0.1,0.6,0.3c-0.3,0.1-0.7,0.1-1,0.2c-3.1,0.3-6.3,0.6-9.4,0.9c-2.2,0.2-3.2,1.2-3.4,3.4c-0.3,3.3-0.7,6.5-1,9.8
		c0,0.2-0.1,0.4-0.3,0.6c-0.1-0.4-0.1-0.7-0.2-1.1c-0.3-3.1-0.6-6.1-0.9-9.2c-0.2-2.5-1.1-3.3-3.6-3.5c-3-0.3-6.1-0.6-9.1-0.9
		c-0.4,0-0.8-0.1-1.1-0.4c1.5-0.2,3-0.3,4.5-0.5c2-0.2,4-0.4,6-0.6c2.2-0.2,3.1-1.1,3.3-3.2c0.3-3.2,0.6-6.3,1-9.5
		c0-0.4,0.1-0.7,0.2-1.1C83.2,15.4,83.3,15.4,83.4,15.4z"/>
</g>
</svg>
