<?xml version="1.0" encoding="utf-8"?>
<!-- Generator: Adobe Illustrator 22.1.0, SVG Export Plug-In . SVG Version: 6.00 Build 0)  -->
<svg version="1.1" id="Calque_1" xmlns="http://www.w3.org/2000/svg" xmlns:xlink="http://www.w3.org/1999/xlink" x="0px" y="0px"
	 viewBox="0 0 153 215" style="enable-background:new 0 0 153 215;" xml:space="preserve">
<style type="text/css">
	.st0{fill:#815938;}
	.st1{fill:#6B4A00;}
	.st2{fill:#937A56;}
	.st3{fill:#FFFFFF;}
	.st4{fill:#EFD5D5;}
	.st5{fill:#EDC0C0;}
	.st6{fill:#C19680;}
	.st7{fill:#9C8965;}
	.st8{fill:#FEFEFE;}
	.st9{fill:#847A61;}
	.st10{fill:#C5B791;}
	.st11{fill:#B7A67D;}
	.st12{fill:#EDE9DD;}
	.st13{fill:#A89566;}
	.st14{fill:#A28D5B;}
	.st15{fill:#D9CEAF;}
	.st16{fill:#E4DDC7;}
	.st17{fill:#F7F6F1;}
	.st18{fill:#B09E72;}
	.st19{fill:#FDFDFD;}
	.st20{fill:#F4F1EB;}
	.st21{fill:#FFCF87;}
</style>
<g>
	<g>
		<path d="M56.1,66.9c-2.1,5.7-3.3,7-8.5,10.5c-2.2,1.5-4.4,2.9-6.3,4.7c-2.6,2.4-2.6,4.8,0.1,7.2c2.2,1.9,4.7,3.5,7.1,5.2
			c1.7,1.2,3.3,2.4,5,3.6c-4.2-2.7-8.6-5.1-12.5-8.2c-3.3-2.6-3.2-5.7,0-8.5c2.3-2.1,5-3.7,7.5-5.5c3.3-2.3,5.9-5,6.5-9.2"/>
		<path d="M88.9,180.1c-0.4,0.8-0.4,2.1,0.1,2.9"/>
		<path d="M87.6,181.4c-5,3.4-10.3,4.1-15.8,3.8c-9.7-0.4-19-2.4-27.5-7.3c-6.6-3.8-10.7-9.3-10.3-17.3c0.1-2.5,1.2-4.9,2-7.3
			c1.2-3.2,2.6-6.3,3.9-9.4c0.7-1.6,1.7-3.2,2.6-4.8c-2.2-0.6-4.3-1.6-4.7-4.4c-0.5-3.2,1.3-5.8,6.2-9.5c-0.3-0.6-0.6-1.4-1.1-1.8
			c-3-2.5-1.9-5.7-1.6-8.7c0.1-0.7,0.6-1.6,1.2-2c5.3-3.4,9.2-7.9,10.6-14.1c0-0.2,0.3-0.3,0.5-0.5c0.7-1.9,1.4-3.8,2.2-6
			c-1.7-0.2-3.3-0.5-4.8-0.7c0-0.2,0-0.4,0.1-0.6c1.8,0.2,3.6,0.3,5.3,0.5c1.9-2.2,3.5-4.6,5.6-6.6c3.9-3.6,8-2.1,9.1,3.1
			c0.7,3.6-0.1,7-1.5,10.3c-1,2.2-1.8,4.8-4.7,4.9c-3,0.2-3.8-2.5-4.9-4.6c-1-1.7-1.9-3.5-3.1-5.7c-3.9,6.6-4.1,14.7-11,18.4
			c2.3,1.6,4.7,2.6,6.3,4.4c5.4,5.9,9.9,12.8,16.4,17.7c0.1,0,0.1,0.1,0.2,0.2c0.2,0.6,0.6,1.3,0.4,1.7c-0.2,0.4-1.1,0.8-1.6,0.6
			c-1.9-0.5-3.9-1-5.6-2c-3.4-2-6.4-4.4-9.8-6.5c-2.2-1.4-4.6-2.3-6.9-3.5c-0.1,0.2-0.2,0.3-0.3,0.5c0.3,0.4,0.5,0.8,0.8,1.2
			c-3.6,1.9-5.4,3.5-6.3,5.9c-0.7,1.9-1.2,4.1,0.6,5.3c1.6,1,4,1.9,5.7,1.4c6.3-1.5,12.5-1.7,18.8-0.6c0.9,0.2,1.8,0.7,2.6,1
			c0,0.3-0.1,0.5-0.1,0.8c-1,0.2-2.1,0.5-3.1,0.5c-5.6,0-11.2-0.1-16.8-0.3c-3.1-0.1-4.5,0.7-5.7,3.5c-1.7,4.1-3.5,8.2-5.2,12.3
			c-0.5,1.2-0.8,2.4-1,3.7c-1.1,7.5,2.7,14.4,10.4,18.5c9.4,5,19.6,7.2,30.2,6.7c3.4-0.2,6.7-1.6,10.1-2.6c1.4-0.4,1.7-1.4,1.3-3
			c-3.2-13.4-4.9-27-4-40.8l1.3-4.2c-1.3,9.3-0.8,18.5,0.4,27.7c0.8,6,2,12,3,18.1c0.3,0.1,0.7,0.1,1,0.2"/>
		<path class="st3" d="M68,135.2c0.2-0.4,0.5-0.8,0.7-1.2c-0.8-0.5-1.7-0.9-2.3-1.5c-3.7-3.9-7.3-7.7-10.9-11.7
			c-1.4-1.6-2.6-3.4-4.2-4.9c-1.4-1.3-3.2-2.2-5-3.1c-0.6-0.3-2-0.2-2.2,0.2c-0.9,1.6-2,3.4-2,5.1c0,2.1,0.5,4.2,3.2,5.3
			c3.3,1.3,6.4,3.1,9.5,4.9c2.9,1.7,5.7,3.8,8.6,5.5C64.8,134.6,66.5,134.8,68,135.2z"/>
		<path class="st3" d="M71,90.7c-0.2-0.1-0.4-0.2-0.5-0.3c-0.2-1.1-0.3-2.2-0.6-3.3c-1.2-4-4.4-5-7.4-2.1c-1.9,1.8-3.3,4-4.9,6.2
			c-0.3,0.3-0.3,1.1-0.1,1.5c1.4,2.7,2.9,5.3,4.5,7.9c1.6,2.4,3.7,2.5,5.1,0C68.6,97.5,69.7,94,71,90.7z"/>
		<path d="M47.6,138.9c5.7,0,11.4,0,17.2,0C59.1,137.2,53.4,137.3,47.6,138.9z"/>
	</g>
	<g>
		<path class="st4" d="M98.5,124c11.1,0,21.8-9.8,21.3-21.3c-0.5-11.5-9.3-21.3-21.3-21.3c-11.1,0-21.8,9.8-21.3,21.3
			C77.8,114.3,86.6,124,98.5,124L98.5,124z"/>
	</g>
	<g>
		<path class="st4" d="M49.8,105.7c11.1,0,21.8-9.8,21.3-21.3c-0.5-11.5-9.3-21.3-21.3-21.3C38.6,63.2,28,73,28.5,84.5
			C29,96,37.8,105.7,49.8,105.7L49.8,105.7z"/>
	</g>
	<g>
		<path class="st4" d="M49.8,183.7c11.1,0,21.8-9.8,21.3-21.3c-0.5-11.5-9.3-21.3-21.3-21.3c-11.1,0-21.8,9.8-21.3,21.3
			C29,174,37.8,183.7,49.8,183.7L49.8,183.7z"/>
	</g>
</g>
<g>
	<path class="st6" d="M61.4,15.4c0.3,2.8,0.5,5.7,0.8,8.5c0.1,0.7,0.1,1.4,0.2,2.1c0.2,1.9,1.2,2.9,3.1,3.1c3.3,0.4,6.7,0.7,10,1
		c0.2,0,0.4,0.1,0.6,0.3c-0.3,0.1-0.7,0.1-1,0.2c-3.1,0.3-6.3,0.6-9.4,0.9c-2.2,0.2-3.2,1.2-3.4,3.4c-0.3,3.3-0.7,6.5-1,9.8
		c0,0.2-0.1,0.4-0.3,0.6c-0.1-0.4-0.1-0.7-0.2-1.1c-0.3-3.1-0.6-6.1-0.9-9.2c-0.2-2.5-1.1-3.3-3.6-3.5c-3-0.3-6.1-0.6-9.1-0.9
		c-0.4,0-0.8-0.1-1.1-0.4c1.5-0.2,3-0.3,4.5-0.5c2-0.2,4-0.4,6-0.6c2.2-0.2,3.1-1.1,3.3-3.2c0.3-3.2,0.6-6.3,1-9.5
		c0-0.4,0.1-0.7,0.2-1.1C61.2,15.4,61.3,15.4,61.4,15.4z"/>
</g>
</svg>
