<?xml version="1.0" encoding="utf-8"?>
<!-- Generator: Adobe Illustrator 22.1.0, SVG Export Plug-In . SVG Version: 6.00 Build 0)  -->
<svg version="1.1" id="Calque_1" xmlns="http://www.w3.org/2000/svg" xmlns:xlink="http://www.w3.org/1999/xlink" x="0px" y="0px"
	 viewBox="0 0 35 55.2" style="enable-background:new 0 0 35 55.2;" xml:space="preserve">
<style type="text/css">
	.st0{fill:#815938;}
	.st1{fill:#6B4A00;}
	.st2{fill:#937A56;}
	.st3{fill:#FFFFFF;}
	.st4{fill:#EFD5D5;}
	.st5{fill:#EDC0C0;}
	.st6{fill:#C19680;}
	.st7{fill:#9C8965;}
	.st8{fill:#FEFEFE;}
	.st9{fill:#847A61;}
	.st10{fill:#C5B791;}
	.st11{fill:#B7A67D;}
	.st12{fill:#EDE9DD;}
	.st13{fill:#A89566;}
	.st14{fill:#A28D5B;}
	.st15{fill:#D9CEAF;}
	.st16{fill:#E4DDC7;}
	.st17{fill:#F7F6F1;}
	.st18{fill:#B09E72;}
	.st19{fill:#FDFDFD;}
	.st20{fill:#F4F1EB;}
	.st21{fill:#FFCF87;}
</style>
<g>
	<path class="st6" d="M35,29L22.1,17.5C16.1,12.3,10,7,3.9,1.8C3.2,1.1,2.4,0.6,1.6,0c0,0.8,0.3,1.3,0.6,1.7
		C7.4,8.4,12.7,15.2,18,22c3.6,4.6,3.6,8.1-0.3,12.5C12.3,40.7,6.9,46.9,1.6,53.1c-0.6,0.7-1,1.4-1.6,2.1c0.9,0,1.3-0.2,1.7-0.5
		c6.9-5.4,13.8-10.7,20.7-16.1L35,29z"/>
</g>
</svg>
