<?xml version="1.0" encoding="utf-8"?>
<!-- Generator: Adobe Illustrator 22.1.0, SVG Export Plug-In . SVG Version: 6.00 Build 0)  -->
<svg version="1.1" id="Calque_1" xmlns="http://www.w3.org/2000/svg" xmlns:xlink="http://www.w3.org/1999/xlink" x="0px" y="0px"
	 viewBox="0 0 136 215" style="enable-background:new 0 0 136 215;" xml:space="preserve">
<style type="text/css">
	.st0{fill:#815938;}
	.st1{fill:#6B4A00;}
	.st2{fill:#937A56;}
	.st3{fill:#FFFFFF;}
	.st4{fill:#EFD5D5;}
	.st5{fill:#EDC0C0;}
	.st6{fill:#C19680;}
	.st7{fill:#9C8965;}
	.st8{fill:#FEFEFE;}
	.st9{fill:#847A61;}
	.st10{fill:#C5B791;}
	.st11{fill:#B7A67D;}
	.st12{fill:#EDE9DD;}
	.st13{fill:#A89566;}
	.st14{fill:#A28D5B;}
	.st15{fill:#D9CEAF;}
	.st16{fill:#E4DDC7;}
	.st17{fill:#F7F6F1;}
	.st18{fill:#B09E72;}
	.st19{fill:#FDFDFD;}
	.st20{fill:#F4F1EB;}
	.st21{fill:#FFCF87;}
</style>
<g>
	<g>
		<g>
			<path d="M59.1,193.6c-2-1.1-3.9-2-5.8-3c-4.9-3-7.7-7.3-8-13.1c0-0.7-0.6-1.5-1.1-2.1c-3.5-4.4-7.2-8.7-10.5-13.2
				c-2.1-2.8-3.2-6.1-3.7-9.5c-0.5-3.9,0.5-7.2,3.7-9.5c2.1-1.5,4.3-2.9,6.6-4.1c8.4-4.3,12.4-11.4,12.5-20.7
				c0-4.6-0.6-9.1-0.8-13.7c-0.1-3.6-0.3-7.3,0.3-10.8C53.6,87,57.6,82,63.8,78.9c10.4-5.2,23.4-3.9,31.6,3.3
				c4,3.5,6.8,7.8,8.4,12.9c0.2,0.5,0.3,1.1,0.5,1.7c2.9-1.9,5.8-3.7,8.3-5.3c-2.5-2.6-4.7-5.4-7.3-7.7c-2.2-1.9-4.7-3.4-7.2-4.9
				c-2.6-1.5-5.4-2.1-8.5-1.9c-1.2,0.1-2.5-0.2-3.7-0.4c0-0.3,0-0.6,0.1-0.9c1.1,0,2.1-0.1,3.2,0c4.8,0.4,9.5,0.8,14.3,1.4
				c2.1,0.3,4.2,0.8,6.2,1.5c6.2,2.3,7.8,6.5,4.7,12.3c1.7,0.3,2.2-1,2.4-2c0.6-3,1.4-6,1.4-9c0-10.8-0.4-21.5-0.6-32.3
				c0.2,0,0.5,0,0.7,0c0.2,9.2,0.6,18.5,0.6,27.7c0,4-0.6,8-1,11.9c-0.1,1-0.6,2.1-1.1,3c-0.3,0.6-1,1.1-1.7,1.3
				c-4.1,0.7-6.9,3.6-10.2,5.8c-0.2,0.2-0.3,0.7-0.3,1c0.5,5.9,0.7,11.8,1.6,17.7c0.5,3.7,1.7,7.3,3,10.9c1.3,3.5,2.6,6.8,2.5,10.6
				c-0.2,4.9-2.6,7.6-7.5,7.9c-2,0.1-4.1-0.1-6-0.4c-1.3-0.2-1.9,0.2-2.2,1.2c-0.3,1-0.5,2.1-0.6,3.1c-0.1,1.5,0,2.9-0.2,4.4
				c-0.4,3.2-2.4,4.8-5.7,4.8c-0.4,0-0.8,0-1.2,0c1.2,5.7,1.1,6.5-1.3,9.4 M84.9,168.1c-0.1,0-0.6,0-1.1,0c-2.5-0.1-3.3,0.4-3.8,2.9
				c-0.3,1.5-0.3,3-0.4,4.5c-0.1,2.5,0,5.1-0.3,7.6c-1,8-7.9,13-15.8,11.5c-1.2-0.2-2.5-0.6-3.7-0.8 M100,102.1c0.1,0,0.3,0,0.4-0.1
				c0.9-1.2,1.9-2.4,2.6-3.6c0.4-0.6,0.6-1.6,0.4-2.2c-1.4-5.4-4.3-9.9-8.5-13.6c-6.5-5.7-14.1-7-22.3-5.9
				C61.6,78.3,52,85.6,52.5,99.9c0.2,5,0.7,9.9,1,14.9c0.6,10.8-2.7,19.5-12.9,24.8c-2.3,1.2-4.5,2.6-6.6,4.1
				c-2.4,1.7-3.4,4.1-3.5,7c-0.1,3.3,1,6.3,2.5,9.2c2.8,5.5,6.9,10.1,11.1,14.6c0.3,0.3,0.7,0.6,1.2,1.1c0.7-6.4,4.3-10.9,8.8-14.8
				c4.4-3.8,9.4-6.8,14.6-9.5c5.4-2.8,10.8-5.4,16-8.4c6-3.4,10-8.7,12.2-15.2c2.2-6.4,2.5-12.9,1.9-19.6c-0.1-1.5,0.1-3.2-0.6-4.3
				c-1-1.6-1-3.2-1.2-4.8c-0.2-1.3-0.3-2.7-0.4-4c-0.3-2.5-1-4.7-3.2-6.2c-0.7-0.5-1.2-1.3-1.8-1.9c0.3-0.2,0.6-0.4,0.8-0.5
				C96.9,90.5,101,94.9,100,102.1z M59.8,193c1,0.3,1.7,0.5,2.5,0.7c4,1,8,1.1,11.4-1.7c3.8-3,5.4-7.1,5.4-11.9
				c0-2.8-0.1-5.5,0.2-8.3c0.4-3.7,1.5-4.5,5.2-4.4c2,0.1,3.2-0.6,3.6-2.6c0.3-1.3,0.3-2.8,0.2-4.2c-0.2-1.6-0.8-3-2.6-3.6
				c-0.6-0.2-1.1-0.9-1.7-1.3c0.1-0.2,0.3-0.5,0.4-0.7c0.8,0.4,1.8,0.6,2.3,1.2c1.4,1.7,3.1,1.6,4.9,1.1c1.9-0.6,2.8-2,3-3.9
				c0.1-1.3,0.1-2.6,0.2-3.9c0.2-1.8,0.6-3.6,1-5.6c-0.1-0.1-0.6-0.3-1-0.7c-1.6-1.3-1.9-3.1-1-5.2c0.8-1.9,2.4-2.9,4.1-2.6
				c2.4,0.4,4.1,1.8,4.9,4.1c0.6,1.8,0,3-1.8,3.5c-0.9,0.3-1.9,0.5-2.9,0.7c0,0.2,0,0.3,0,0.5c2.5,0,5,0.3,7.5-0.1
				c3.1-0.4,4.7-2.3,5.2-5.4c0.7-3.9-0.5-7.6-1.9-11.2c-1.1-2.8-2.3-5.6-2.8-8.5c-0.8-4.5-1-9.1-1.4-13.6c-0.2-2.4-0.4-4.8-0.6-7.3
				c-0.2,0-0.3,0-0.5-0.1c-0.8,1-1.5,2.1-2.3,3.1c-0.3,0.4-0.7,1.1-1,1.1c-2.1,0-1.3,1.4-1.3,2.5c0.1,4.9,0.6,9.9,0.1,14.8
				c-1.1,10.5-5.9,18.8-15.4,24c-3.9,2.1-7.9,4.1-11.9,6.1c-6.7,3.4-13.3,7-18.8,12.2c-3.6,3.3-6.3,7.2-7,12.2
				c-0.2,1.1,0,1.8,0.8,2.5c3.3,3,6.5,6.1,9.7,9.2C58.5,188.1,60.2,190,59.8,193z M113.3,90.7c0.4-0.3,0.5-0.3,0.6-0.5
				c2.8-2.9,2-7.2-1.9-9.8c-3.2-2.2-12-3.9-16.3-3C103.5,79.7,108,85.7,113.3,90.7z M46,177c0.1,7.5,6.4,14.6,13.7,15.7
				c-0.6-1.5-0.9-3-1.7-3.9C54.2,184.8,50.2,181,46,177z M96.9,136.3c-1.2,0-2.2,1.1-2.7,2.6c-0.5,1.5-0.5,3.1,1,4.1
				c0.6,0.4,1.4,0.9,2.1,0.8c1.3-0.2,2.6-0.7,3.9-1.1c1.2-0.4,1.5-1.2,1.3-2.4C102,138.3,99.7,136.3,96.9,136.3z M97.6,94.1
				c0.4,2.7,0.8,5.5,1.2,8.2c0.2,0,0.3,0,0.5-0.1C99.8,99.3,98.8,96.7,97.6,94.1z"/>
		</g>
	</g>
</g>
<g>
	<path class="st6" d="M79.4,15.4c0.3,2.8,0.5,5.7,0.8,8.5c0.1,0.7,0.1,1.4,0.2,2.1c0.2,1.9,1.2,2.9,3.1,3.1c3.3,0.4,6.7,0.7,10,1
		c0.2,0,0.4,0.1,0.6,0.3c-0.3,0.1-0.7,0.1-1,0.2c-3.1,0.3-6.3,0.6-9.4,0.9c-2.2,0.2-3.2,1.2-3.4,3.4c-0.3,3.3-0.7,6.5-1,9.8
		c0,0.2-0.1,0.4-0.3,0.6c-0.1-0.4-0.1-0.7-0.2-1.1c-0.3-3.1-0.6-6.1-0.9-9.2c-0.2-2.5-1.1-3.3-3.6-3.5c-3-0.3-6.1-0.6-9.1-0.9
		c-0.4,0-0.8-0.1-1.1-0.4c1.5-0.2,3-0.3,4.5-0.5c2-0.2,4-0.4,6-0.6c2.2-0.2,3.1-1.1,3.3-3.2c0.3-3.2,0.6-6.3,1-9.5
		c0-0.4,0.1-0.7,0.2-1.1C79.2,15.4,79.3,15.4,79.4,15.4z"/>
</g>
</svg>
