<?xml version="1.0" encoding="utf-8"?>
<!-- Generator: Adobe Illustrator 22.1.0, SVG Export Plug-In . SVG Version: 6.00 Build 0)  -->
<svg version="1.1" id="Calque_1" xmlns="http://www.w3.org/2000/svg" xmlns:xlink="http://www.w3.org/1999/xlink" x="0px" y="0px"
	 viewBox="0 0 191.5 128.4" style="enable-background:new 0 0 191.5 128.4;" xml:space="preserve">
<style type="text/css">
	.st0{fill:#815938;}
	.st1{fill:#6B4A00;}
	.st2{fill:#937A56;}
	.st3{fill:#FFFFFF;}
	.st4{fill:#EFD5D5;}
	.st5{fill:#EDC0C0;}
	.st6{fill:#C19680;}
	.st7{fill:#9C8965;}
	.st8{fill:#FEFEFE;}
	.st9{fill:#847A61;}
	.st10{fill:#C5B791;}
	.st11{fill:#B7A67D;}
	.st12{fill:#EDE9DD;}
	.st13{fill:#A89566;}
	.st14{fill:#A28D5B;}
	.st15{fill:#D9CEAF;}
	.st16{fill:#E4DDC7;}
	.st17{fill:#F7F6F1;}
	.st18{fill:#B09E72;}
	.st19{fill:#FDFDFD;}
	.st20{fill:#F4F1EB;}
	.st21{fill:#FFCF87;}
</style>
<g>
	<g>
		<g>
			<path class="st0" d="M110.3,63.4c1.7-3.1,4.2-5.4,6.8-7.7c0.5-0.4,0.9-0.8,1.4-1.3c2-2,2-2.6,0.2-4.7c-0.9-1-1.6-2-2.5-3.2
				c2.3-0.7,3.7,0.3,4.3,2.6c0.6,2.4,1.2,2.8,3.4,1.5c3.2-1.9,6.4-4,10-6.3c-0.7-0.5-1.3-0.8-1.7-1.3c-0.2-0.4-0.1-1-0.2-1.5
				c0.5,0.1,1,0.2,1.5,0.4c0.2,0.1,0.4,0.4,0.5,0.7c0.7,2.2,2.2,3.8,4,5.2c0.6,0.4,0.8,1.2,1.2,1.8c-0.2,0.2-0.4,0.3-0.6,0.5
				c-0.8-0.8-1.7-1.6-2.3-2.6c-0.8-1.3-1.7-1.4-2.7-0.5c-2,1.8-4,3.6-5.9,5.6c-1.1,1.1-2.1,2.4-2.8,3.8c-0.7,1.5-1.5,3.1-1.5,4.7
				c-0.3,8.1,0.5,16,4.8,23.2c1.2,2,1.9,4.2,2.9,6.3c1,2.1,2.2,2.7,4,2.1c1.9-0.6,3.2-2.4,2.8-4.3c-0.7-3.1-1.7-6.2-2.7-9.3
				c-0.1-0.3-0.8-0.7-1.3-0.6c-0.8,0.1-1.6,0.5-2.4,0.6c-0.4,0.1-0.9-0.3-1.4-0.4c0.2-0.5,0.3-1.3,0.7-1.4c1.1-0.3,2.3-0.3,3.8-0.4
				c-0.5-3-1-6.1-1.7-9.1c-0.5-1.9-0.1-3.3,1.2-4.6c5.2-5.2,11.5-8.4,18.8-9.4c0.2,0,0.4-0.1,0.8-0.2c-0.9-1.6-1.7-3-3.7-3.4
				c-1.4-0.3-2.8-0.9-4.1-1.5c-0.6-0.2-1-0.8-1.5-1.2c0.1-0.2,0.2-0.4,0.2-0.7c1.1,0.2,2.3,0.2,3.4,0.6c1,0.4,1.9,1,2.7,1.7
				c1.9,1.6,4.2,1.4,5.4-0.9c1.5-2.7,1.2-5.5,0.1-8.2c-0.6-1.5-1.3-2.9-2.1-4.5c-1.1,1.3-2.1,2.5-3.2,3.7c-0.1-0.1-0.2-0.1-0.2-0.2
				c0.8-1.1,1.8-2.1,2.5-3.2c0.4-0.7,0.7-1.6,0.8-2.4c0.2-3.9,1.2-7.5,3.2-10.8c0.2-0.3,0.4-0.5,0.6-0.8c0.2-0.2,0.4-0.3,1.1-0.8
				c0.1,1,0.4,1.7,0.3,2.3c-0.6,3.5-2.1,6.8-4.1,9.7c1.1-2.6,2.2-5.2,3.2-7.8c0.4-1,0.5-2.2,0.8-3.7c-2.4,1.8-5.2,9-4.6,11.2
				c0,0.1,0.4,0.1,0.7,0.2c-0.8,1.5-0.4,2.8,0.3,4.1c1.4,2.4,2.2,5.1,2,7.9c-0.3,3-1.4,5.3-4.8,5.5c0.1,0.3,0.1,0.4,0.1,0.5
				c2.1,3.2,2.7,3.1,4.9,0c1.7-2.4,3.4-4.8,5.5-6.8c1.5-1.5,3.5-2.9,5.5-3.4c8.6-2.2,14.9-7.6,20.2-14.4c0.8-1,1.6-2,2.5-3
				c0,0.3,0,0.7,0,1c-0.4,0.4-0.8,0.7-1.2,1.1c-5.4,7.1-11.6,13.1-20.6,15.4c-5.9,1.5-8.9,6.3-12,10.9c2.2,0.5,4.3,0.9,6.2,1.5
				c1.6,0.5,2.9,0.5,4.1-0.8c-0.7,0.7-1.4,1.4-1.9,1.8c0.3,1.5,0.8,3,0.8,4.5c0,2,0.7,3.6,2,5.1c1.3,1.4,2.2,3.1,3.4,4.6
				c1.2,1.3,2.5,2.6,3.9,3.7c2.3,2,2.7,3.1,1.6,5.8c-0.5,1.2-1.3,1.8-2.5,1.4c-1.4-0.5-2.8-1-3.9-1.9C168,75,164.6,72,161.1,69
				c-2.3-2-3.8-4.4-3.9-7.6c-0.1-2.2-0.7-4.4-1-6.7c-3.6,3.1-4.7,7.4-6.2,11.5c-0.1,0.3-0.1,0.8,0.1,1.1c1.2,2.5,2.4,5.1,3.8,7.6
				c0.5,0.8,1.8,1.1,2.6,1.7c1.6,1.1,3.2,2.1,4.7,3.3c1.2,1.1,1.5,5,0.4,6.2c-0.4,0.4-1.3,0.8-1.7,0.7c-1.4-0.4-2.7-1.2-4.1-1.8
				c0.1-0.2,0.1-0.3,0.2-0.5c1,0.6,2,1.2,3.1,1.7c1.6,0.6,2.2,0.1,2.5-1.6c0.5-2.5-0.2-4.4-2.5-5.7c-0.4-0.2-0.7-0.6-1.1-0.7
				c-4.5-1.5-6.1-5.5-8-9.2c-1-1.8-0.6-3.5,0.2-5.2c0.4-1,0.9-2.1,1.1-3.3c-1.4,1.7-2.8,3.4-4.3,5.2c-0.3-0.2-0.5-0.5-0.8-0.7
				c2.9-3.2,6.7-5.7,7.4-10.6c-3.3,0.2-6.5,1.2-9.4,2.5c-3.7,1.7-6.9,4-9.8,6.9c-1.2,1.2-1.6,2.4-1,4.1c0.5,1.3,0.7,2.7,0.8,4.1
				c0.3,5.2,2.4,9.9,3.8,14.7c0.8,2.8,0.2,5.1-2.1,6.3c-2.1,1.1-4,0.7-5.1-1.4c-4.2-8.4-8.1-16.8-8.3-26.6c-0.1-5.7,2-10.1,5.7-14
				c1.9-2,4.1-3.7,6.5-5.9c-0.9,0.2-1.6,0.2-2.1,0.5c-2.4,1.5-4.8,3.2-7.3,4.7c-1.4,0.8-3,1.3-4.2,1.8c-1.7,1.8-3.3,3.3-4.8,5
				c-2,2.1-3.9,4.3-5.9,6.4C110.4,63.6,110.3,63.4,110.3,63.4z M156.6,53.8c0.4,3,0.9,5.6,1.1,8.3c0.2,2.8,1.8,4.8,3.7,6.6
				c1,0.9,2,1.8,3,2.7c2.8,2.3,5.6,4.8,8.6,6.9c2.9,2.1,4.6,1.4,5-1.7c0.1-0.9-0.7-2.2-1.4-3c-1.3-1.5-3-2.7-4.4-4.2
				c-1.5-1.7-2.9-3.6-4.1-5.5c-0.7-1.1-1-2.4-1.3-3.7c-0.2-0.7,0-1.6-0.1-2.4c-0.2-1.7-1.4-3.2-3.1-3.4
				C161.4,54.1,159.3,54,156.6,53.8z M116.7,46.6c1.2,1.4,2,2.4,3.1,3.7C119.8,47.9,119.2,47.1,116.7,46.6z M145.8,47.3
				c-0.1,0.2-0.2,0.4-0.3,0.6c1.4,0.6,2.9,1.1,4.3,1.7c0.1-0.2,0.1-0.4,0.2-0.6C148.6,48.5,147.2,47.9,145.8,47.3z"/>
			<path class="st0" d="M0,105.9c2.7-0.4,5.5-0.7,8.1-1.4c2.2-0.5,4.3-0.9,6.6-0.7c4.7,0.4,9.4,0.4,14.1,0.5c3.9,0.1,7.8,0,11.4,0
				c0.4-0.8,0.8-1.4,1.1-2c0.6,0.4,1.2,0.8,1.6,1.3c1,1.4,2,2.2,3.8,1.3c0.3-0.2,0.9,0,1.3,0c0.1,0.2,0.1,0.4,0.2,0.6
				c-0.7,0.3-1.5,0.6-2.3,1c-0.5,2.4,0.4,4.7,1.4,6.9c0.5,1.1,0.4,1.9-0.2,3.1c-0.8,1.7-1.1,3.6-1.2,5.5c0,0.8,1.1,1.8,1.9,2.5
				c0.2,0.2,1.4-0.8,2-1.4c5.1-5.1,5.2-11.4,4.6-18c-0.5-6.8-5.1-10.3-9.8-13.8c-1.1-2.3-2.2-4.7-3.2-7c0.2-0.1,0.5-0.3,0.7-0.4
				c0.4,0.6,1.1,1.1,1.3,1.7c0.7,3.1,2.8,5.3,4.9,7.6c2.5,2.7,4.8,5.5,7.2,8.2c0.5-0.7,1.3-1.7,2.1-2.6c0.2,0.2,0.5,0.4,0.7,0.5
				c-0.4,0.5-0.7,1.2-1.2,1.6c-1.4,1-1.6,2.4-1.4,3.9c0.3,3.1,0.6,6.2,0.9,9.3c0.1,1.2-0.3,2.1-1.2,2.9c-2.5,2.3-3.5,5.2-3.4,8.5
				c0,1.6,0.8,2.3,2.9,2.7c-2.7,0.2-3.8-0.8-2.9-6.8c-0.8,1-1.2,1.9-1.9,2.5c-0.6,0.6-1.7,1.4-2.2,1.2c-0.9-0.4-2-1.3-2.3-2.2
				c-0.7-2.3-0.4-4.6,1-6.7c0.6-0.9,0.6-1.5,0.3-2.4c-0.6-2.3-1.1-4.6-1.6-6.9c-0.1-0.3-0.1-0.7-0.3-0.9c-1.1-0.9-2.3-1.8-3.6-2.8
				c0.1,0.5,0.2,1,0.3,1.5c-0.6,0-1.2,0.1-1.8,0.1c-9.1-0.3-18.3-0.5-27.4-0.8c-0.8,0-1.5,0.3-2.3,0.4c-3.4,0.6-6.7,1.2-10.1,1.8
				C0,106.2,0,106.1,0,105.9z M55.1,116.1c0.2,0,0.5,0,0.7,0c1.5-4.6-1-9.2-0.7-13.8C55.1,106.9,55.1,111.5,55.1,116.1z"/>
			<path class="st0" d="M0,78.4c3.8-1.1,7.6-2.3,11.3-3.5c8.1-2.6,16.1-5.2,24.2-7.7c0.9-0.3,1.8-0.7,2.8-0.9
				C26,71.8,12.7,74.7,0,79.1C0,78.9,0,78.7,0,78.4z"/>
			<path class="st0" d="M51.8,77.1c1.6,2,2.9,4,4.5,5.6c3.1,3.1,6.4,6.1,9.7,9c1.2,1,1.6,0.8,1.9-0.8c0.1-0.7,0.4-1.3,0.7-2.2
				c1.3,1,0.9,2,0.3,2.7c-0.8,0.9-0.6,1.7-0.1,2.5c1,1.7,2,3.6,3.2,5.2c1.9,2.5,2.5,5.3,2.2,8.3c-0.2,1.9-0.3,3.8-0.5,5.7
				c-0.2,2.2,0.2,4.3,1.5,6.1c0.5,0.7,1.3,1.4,2.1,1.8c2.3,1,3.3,0.3,3.5-2.1c0.5-6,1-12,1.9-18c-0.3,2.8-0.6,5.5-0.8,8.3
				c-0.3,3.2-0.4,6.3-0.7,9.5c-0.1,1.2,0.1,2.7-1.5,3.1c-1.6,0.4-3.4,0.1-4.3-1.3c-1-1.6-1.8-3.4-2-5.2c-0.2-3,0-6.1,0.3-9.1
				c0.2-2.5-0.7-4.5-2-6.5c-1.3-2-2.4-4.1-3.7-6.1c-0.1-0.2-0.2-0.5-0.3-0.5c-2.7-0.4-3.9-2.9-6-4.1c-3.5-2.1-5.6-5.7-8.7-8.2
				C52,79.8,51.3,78.8,51.8,77.1z"/>
			<path class="st0" d="M28.6,78.6c1.8-1.6,3.6-3.3,5.5-4.8c0.5-0.4,1.3-0.6,2.1-0.7c1.1-0.1,1.7-0.6,2-1.7c0.8-2.8,2.2-3.8,5.1-3.9
				c1.3-0.1,2.6-0.2,3.9-0.3c0.6-0.1,1.2-0.2,2.3-0.5c-1.9-0.6-3.5-1.1-5-1.6c0-0.2-0.1-0.4-0.1-0.6c0.6-0.3,1.2-0.7,1.8-0.8
				c3.1-0.5,6.3-0.7,9.4-1.3c2.6-0.5,5.1-1.4,7.6-2.1c2.5-0.7-0.6,0.8-4.6,2c-2.7,0.8-5.7,1-8.5,1.5c-1.6,0.2-3.2,0.4-4.8,0.8
				c2.1,0.9,4,1.7,6.3,1.2c1.6-0.3,3.4,0.1,4.8,1.3c0,0.2,0,0.4-0.1,0.6c-1.3-0.1-2.7-0.2-4-0.3c-0.9-0.1-1.8-0.2-2.7-0.1
				c-1.9,0.2-3.8,0.6-5.7,0.7c-3.1,0.2-4.4,1-5.3,3.9c-0.4,1.3-1.2,1.6-2.3,1.9c-0.9,0.2-1.8,0.7-2.6,1.3c-1.6,1.2-3.2,2.6-4.7,3.9
				C28.7,78.8,28.6,78.7,28.6,78.6z"/>
			<path class="st0" d="M68,70.2c0.3-1.6,0.6-3.2,0.9-4.7c0.2,0,0.4,0.1,0.7,0.1c-0.1,0.8-0.3,1.7-0.2,2.5c0,0.5,0.3,1.4,0.7,1.5
				c3.5,1.5,7.1,2.1,10.9,2c0.5,0,1-0.7,1.3-1.2c0.3-0.5,0.3-1.1,0.5-1.6c0.2,0,0.4,0.1,0.6,0.1c0,0.7-0.2,1.3-0.1,2
				c0.1,0.5,0.2,1.3,0.5,1.5c4.2,2.2,8.6,3.7,13.5,2.5c-0.7,0.2-1.3,0.4-2,0.5c-4.4,0.6-8.4-0.7-12.2-2.7c-0.5-0.3-1.2-0.5-1.8-0.5
				c-4.3-0.1-8.4-0.6-12.5-2.6C68.5,69.8,68.1,70,68,70.2z"/>
			<path class="st0" d="M110.4,63.6c-2.4,2.4-4.7,5-7.2,7.3c-1.3,1.2-3.4,1.1-4.7,0.2c-1.4-1-2.1-2.6-1.5-4.5c0.4-1.1,1-2.2,1.7-3.2
				c1-1.4,2.1-2.6,3.1-3.9l0.1,0.1c-1.1,1.5-2.1,2.9-3.2,4.4c-0.5,0.7-1,1.5-1.3,2.4c-0.7,1.9-0.1,3.6,1.4,4.5
				c1.5,0.9,3.1,0.7,4.6-0.7c1.8-1.7,3.5-3.5,5.3-5.2c0.5-0.5,1-0.9,1.5-1.3C110.3,63.4,110.4,63.6,110.4,63.6z"/>
			<path class="st0" d="M168.1,53c0.7-1.7,1.5-3.3,2.2-5c-0.8-0.4-1.4-0.7-2-1.1c0.4,0.1,0.9,0.1,1.6,0.3c-2.1-2.1-3.8-2.4-5.2-1.1
				c0.5-0.4,1-1.2,1.4-1.1c1.1,0.2,2.6,0.4,3.2,1.1c1.4,1.6,2.5,0.9,3.8,0.2c0.1-0.1,0.3-0.1,0.5-0.2c-0.1,0.2-0.1,0.4-0.2,0.4
				c-2.6,0.6-3.3,2.7-4.1,4.8C169,51.9,168.5,52.4,168.1,53z"/>
			<path class="st0" d="M116.3,41.6c-2.2,2.3-4.4,4.6-6.6,6.9c-0.1-0.1-0.2-0.2-0.3-0.3c2.2-2.3,4.4-4.6,6.6-6.9
				C116.1,41.4,116.2,41.5,116.3,41.6z"/>
			<path class="st0" d="M66,105.6c0-3.6,0-7,0-10.1C66.7,96.4,66.8,99.1,66,105.6z"/>
			<path class="st0" d="M101.8,59.4c1.2-1.7,2.3-3.4,3.5-5.1c0.1,0.1,0.3,0.2,0.4,0.3c-1.3,1.6-2.5,3.3-3.8,4.9
				C101.9,59.5,101.8,59.4,101.8,59.4z"/>
		</g>
	</g>
	<path class="st0" d="M65.9,105.6c0,0-3.7,13.2-10.9,22.7"/>
	<path class="st0" d="M147.7,65.5c-1.9,0.6-3.9,1-6,1.1c-1,0-2.1,0-3.1-0.3c-0.5-0.2-1-0.3-1.5-0.7c-0.2-0.2-0.5-0.3-0.6-0.6
		c-0.1-0.1-0.2-0.2-0.2-0.4l-0.1-0.4c-0.3-1.1-0.1-2.2,0.2-3.2c0.3-1,0.7-2,1.2-2.9c0.9-1.9,2-3.6,3-5.3c2.1-3.5,4.8-6.6,7.2-9.8
		c1.2-1.6,2.3-3.3,3.4-5c1.1-1.7,2.2-3.4,3.4-5.1c-2,3.5-3.9,7.1-6.2,10.5c-1.1,1.7-2.4,3.3-3.6,4.9c-1.2,1.6-2.3,3.3-3.4,5
		c-1.1,1.7-2.1,3.4-3,5.2c-0.4,0.9-0.9,1.8-1.1,2.7c-0.3,0.9-0.5,1.9-0.3,2.8c0.2,0.9,1,1.4,1.9,1.7c0.9,0.3,1.9,0.4,2.9,0.4
		C143.7,66.3,145.7,66,147.7,65.5z"/>
	<path class="st0" d="M105.6,54.3c1.9-3,4-5.9,6.4-8.7c1.2-1.4,2.4-2.7,3.7-3.9c1.3-1.3,2.8-2.3,4.2-3.4c2.8-2.2,5.5-4.6,8.1-7
		c1.3-1.2,2.6-2.5,4-3.7c1.4-1.2,3-2.1,4.5-3.1c6.1-3.9,12.1-7.7,18.2-11.6c1.5-1,3-2,4.5-3c1.5-1,2.9-2.1,4.2-3.3
		c2.7-2.3,5.6-4.6,8.5-6.6c-2.9,2.2-5.6,4.5-8.2,6.9c-1.3,1.3-2.7,2.4-4.2,3.5c-1.4,1.1-2.9,2.1-4.4,3.1c-5.9,4.1-12,7.8-18,11.8
		c-1.5,1-3,1.9-4.4,3c-1.3,1.2-2.6,2.4-4,3.6c-2.7,2.4-5.4,4.8-8.3,7c-1.4,1.1-2.9,2.1-4.3,3.3c-1.3,1.2-2.6,2.5-3.8,3.8
		C109.9,48.6,107.7,51.4,105.6,54.3z"/>
	<path class="st0" d="M98.1,73c-0.1-0.8-0.6-1.5-1.1-2c-0.5-0.6-1.2-1.1-1.8-1.5c-1.3-0.9-2.7-1.5-4.2-2.1c-2.9-1.2-6-2.1-9-3.1
		c-1.5-0.5-3-1-4.6-1.6c-1.5-0.6-3-1.2-4.4-1.9c-1.5-0.6-2.9-1.2-4.5-1.5c-0.8-0.2-1.6-0.2-2.3-0.1c-0.8,0.1-1.5,0.5-2.1,1
		c0.6-0.6,1.3-1,2.1-1.2c0.8-0.2,1.6-0.2,2.4-0.1c1.6,0.2,3.2,0.7,4.7,1.3c3,1.2,5.9,2.3,9,3.2c3,1,6.1,2,9,3.3
		c1.5,0.7,2.9,1.4,4.2,2.4c0.6,0.5,1.2,1.1,1.7,1.7C97.7,71.4,98.1,72.2,98.1,73z"/>
	<path class="st0" d="M82.7,100.3l-2.3-4.8c-0.8-1.6-1.5-3.2-2.3-4.8c-0.8-1.6-1.6-3.2-2.4-4.7c-0.4-0.8-0.9-1.5-1.3-2.3l-0.4-0.5
		l-0.4-0.4c-0.3-0.3-0.7-0.5-1-0.8c-2.8-2.1-5.8-4.1-8.7-6.2l-4.4-3.1c-1.4-1.1-2.9-2.1-4.3-3.2c3.1,1.8,6.1,3.7,9.1,5.7
		c3,1.9,6,3.9,8.9,6c0.4,0.3,0.7,0.5,1.1,0.9l0.5,0.6l0.4,0.6c0.5,0.8,1,1.6,1.4,2.4c0.8,1.6,1.6,3.2,2.3,4.9
		C80.2,93.6,81.5,97,82.7,100.3z"/>
	<path class="st0" d="M156.7,84.7c-2.2-0.2-4.3-0.8-6.4-1.7c-1-0.4-2-1-2.9-1.6c-0.9-0.6-1.7-1.5-2.4-2.3c-1.3-1.7-2.6-3.5-3.9-5.2
		l-1.9-2.7c-0.6-0.9-1.2-1.8-1.8-2.7c0.8,0.8,1.5,1.6,2.2,2.4l2.1,2.5c1.4,1.7,2.8,3.4,4.1,5.1c1.2,1.7,3,2.9,4.9,3.9
		c1,0.5,1.9,0.9,3,1.3C154.6,84.1,155.7,84.4,156.7,84.7z"/>
</g>
</svg>
