<?xml version="1.0" encoding="utf-8"?>
<!-- Generator: Adobe Illustrator 22.1.0, SVG Export Plug-In . SVG Version: 6.00 Build 0)  -->
<svg version="1.1" id="Calque_1" xmlns="http://www.w3.org/2000/svg" xmlns:xlink="http://www.w3.org/1999/xlink" x="0px" y="0px"
	 viewBox="0 0 172 215" style="enable-background:new 0 0 172 215;" xml:space="preserve">
<style type="text/css">
	.st0{fill:#815938;}
	.st1{fill:#6B4A00;}
	.st2{fill:#937A56;}
	.st3{fill:#FFFFFF;}
	.st4{fill:#EFD5D5;}
	.st5{fill:#EDC0C0;}
	.st6{fill:#C19680;}
	.st7{fill:#9C8965;}
	.st8{fill:#FEFEFE;}
	.st9{fill:#847A61;}
	.st10{fill:#C5B791;}
	.st11{fill:#B7A67D;}
	.st12{fill:#EDE9DD;}
	.st13{fill:#A89566;}
	.st14{fill:#A28D5B;}
	.st15{fill:#D9CEAF;}
	.st16{fill:#E4DDC7;}
	.st17{fill:#F7F6F1;}
	.st18{fill:#B09E72;}
	.st19{fill:#FDFDFD;}
	.st20{fill:#F4F1EB;}
	.st21{fill:#FFCF87;}
</style>
<g>
	<g>
		<path class="st5" d="M107.5,145c11.1,0,21.8-9.8,21.3-21.3c-0.5-11.5-9.3-21.3-21.3-21.3c-11.1,0-21.8,9.8-21.3,21.3
			C86.8,135.3,95.6,145,107.5,145L107.5,145z"/>
	</g>
	<g>
		<path class="st5" d="M37.5,136c11.1,0,21.8-9.8,21.3-21.3c-0.5-11.5-9.3-21.3-21.3-21.3c-11.1,0-21.8,9.8-21.3,21.3
			C16.8,126.3,25.6,136,37.5,136L37.5,136z"/>
	</g>
	<g>
		<path d="M81.2,201.4c-0.7-8,0.2-15.8,2.8-23.4c1.3-3.8,2.9-7.4,4.3-11.2c-0.3,0.5-0.7,0.9-1,1.4c-1.5,2.1-2.9,4.3-4.5,6.4
			c-3.6,4.6-8.4,6-13.9,3.8c-6.7-2.6-11.4-7.6-14.3-14c-3.3-7.3-6.1-14.8-8.7-22.4c-3.1-9-6.1-18.1-8.5-27.3
			c-2.5-9.7-2.3-19.5,0.7-29.2c0.9-2.8,1-5.9,1.4-8.8c0.3-1.7,0.5-3.4,0.7-5.3c-0.6-0.1-1.3-0.3-2.5-0.5c0.7-0.3,1-0.5,1.4-0.7
			c2-0.6,4.1-1.3,6.2-1.7c1.1-0.2,2.4-0.3,3.5-0.1c4.8,1,9.4,2.4,13.6,4.9c3.4,2,5.3,5.2,6.2,8.9c0.1,0.5-0.2,1.1-0.3,1.7
			c-0.5-0.2-1.2-0.3-1.6-0.6c-2.2-1.6-4.3-3.4-6.5-4.9c-5.2-3.5-11.1-5.2-17.1-6.7c-1.3-0.3-2.1,0.1-2.4,1.4c-0.2,1-0.5,2-0.5,3
			c0.1,3.8-0.7,7.5-1.8,11.1c-3.2,10.3-2.6,20.8,0.5,30.9c4.3,13.8,9.2,27.5,14.1,41.1c2,5.4,5,10.4,9.6,14.1c1.9,1.5,4,2.9,6.3,3.9
			c5.1,2.2,9.8,1,13-3.5c3.2-4.5,6-9.2,9-13.9c3-4.7,6.7-8.8,11.4-11.9c8.8-5.8,18-6,27.5-2.1c8.4,3.4,15.5,8.8,22.4,14.4
			c1.7,1.3,3.3,2.8,4.8,4.3c2.7,2.9,4.3,6.2,3.7,10.3c-0.4,2.4-0.9,2.7-3.1,1.8c-3.1-1.2-5.3-3.5-7.4-6c-3.5-4.3-6.7-8.8-10.4-12.9
			c-4.4-4.8-9.9-8.3-16.4-9.5c-9.9-1.8-18.4,1.6-25.2,8.6c-9.8,10.1-14.6,22.5-15.5,36.4c-0.2,2.7,0.1,5.4,0.1,8.1
			C82.4,201.4,81.8,201.4,81.2,201.4z M61.8,77.1c2.1,2,3.2,5,6.5,6.1c-0.6-3.3-1.8-6.1-4.4-8.1c-4.7-3.5-10.1-5-15.8-6.1
			c-0.7-0.1-1.4,0.1-2,0.1c4.3,1.9,8.5,3.8,12.8,5.7c-0.7-0.3-1.4-0.7-2.2-0.9c-3.7-1.3-7.3-2.6-11-3.8c-1-0.3-2.2-0.6-3.1,0.8
			c7,1.9,13.9,3.8,19.8,8.2c0.1-0.2,0.3-0.3,0.4-0.5C62.6,78.2,62.2,77.7,61.8,77.1z M90.5,163.9c1-1.4,2.1-2.9,3.2-4.3
			c11.8-15.6,30.2-17.7,45-5.1c4.7,4,8.2,9.1,11.9,14c1.8,2.4,4.1,4.5,6.5,6.3c1.9,1.4,2.6,0.9,2.6-1.6c0-3-1.3-5.6-3.4-7.7
			c-2.2-2.1-4.5-4.1-6.8-6c-6.2-5-12.7-9.6-20.1-12.6C113.9,140.7,96.3,148.3,90.5,163.9z"/>
		<path d="M131.5,96.6c-0.9,0.4-1.9,1-2.8,1.3c-2.3,0.7-4.1-0.7-5.9-1.7c-2.6-1.5-5.1-3.1-7.7-4.6c-1.3-0.7-2.8-1.2-4.2-1.7
			c-3.3-1-6.4-0.4-9,1.9c-2.1,1.8-4.1,3.9-6.2,5.7c-0.7,0.6-1.4,1.1-2.2,1.5c-1.6,0.8-3.4,0.2-3.8-1.5c-0.5-2.2-0.6-4.4-0.7-6.6
			c-0.1-1,0.2-2,0.4-3.1c-0.4,0-0.7-0.1-0.9-0.1c-2.6,0.3-2.9-0.1-2.4-2.6c0.5-2.3,1.9-4.1,3.8-5.4c3.1-2.1,6.7-2.9,10.4-3.4
			c10-1.3,19.6,0,28.5,5.1c2.8,1.6,5.2,3.7,8,5.7c0.1-0.6,0.4-1.2,0.4-1.9c0.3-3.5-0.3-7-1.4-10.3c-1.1-3.4-2.2-6.9-3.3-10.5
			c4.1,5.6,6.8,20.5,4.4,24.4c-0.2-0.1-0.4-0.2-0.5-0.3c-8.4-9.1-19.3-11.9-31.2-11.5c-3.8,0.1-7.6,1-11.3,1.9c-2.7,0.7-5,2.3-6.3,5
			c-0.4,0.8-0.5,1.7-0.8,2.7c1.8,0.2,3.1,0,3.9-1.6c1.2-2.7,3.4-4.2,6.4-4.7c10-1.7,19.7-1.4,28.9,3.2c2,1,3.9,2.4,5.8,3.6
			c-0.1,0.2-0.2,0.3-0.3,0.5c-0.5-0.2-1-0.3-1.5-0.5c-4.8-1.4-9.6-3-14.5-4c-5.3-1.1-10.7-0.5-15.8,1.3c-2.6,0.9-5.2,1.5-7.7,2.5
			c-0.7,0.3-1.6,1.1-1.7,1.8c-0.3,2.3-0.5,4.6-0.3,6.9c0.1,1,1,2.5,1.9,2.8c0.8,0.3,2.2-0.6,3-1.3c2.2-1.8,4.1-3.8,6.2-5.7
			c3-2.6,6.5-3.5,10.2-2c2.6,1,5,2.3,7.4,3.6c1.4,0.8,2.8,1.7,4.1,2.6c2.3,1.5,4.6,2.1,7.1,0.6c0.3-0.2,0.7-0.2,1.1-0.3
			C131.2,96.2,131.4,96.4,131.5,96.6z M121.6,83c-0.1-0.1-0.2-0.2-0.3-0.2c-0.2-0.1-0.4-0.2-0.6-0.3c-8.4-2.8-16.9-2.8-25.4-0.8
			c-1.9,0.5-3.2,1.9-3.8,4.1C101.4,82.1,111.3,79.9,121.6,83z"/>
		<path d="M77.5,127.5c-0.4-0.4-0.8-0.8-1.3-1.1c-1.2-1-2.3-1-3.4,0.3c-0.5,0.6-1.1,1.3-1.8,1.8c-1.4,1-2.7,0.9-3.6-0.6
			c-0.6-0.9-1.2-1.1-2.1-0.8c-0.4,0.1-0.8,0.1-1.2,0.1c-1.2,0-2.5-0.2-2.9-1.6c-0.4-1.3,0.6-2,1.6-2.5c1.2-0.7,2.3-0.3,3.2,0.6
			c0.2,0.2,0.4,0.5,0.5,0.8c0.4,1.1,1.1,0.9,2,0.7c2.6-0.6,5.2-1.2,7.8-1.3c1.5-0.1,3,0.7,4.4,1.3c0.5,0.2,1.1,1.5,0.9,1.9
			c-0.4,0.8-1.2,1.6-2,2c-1.5,0.7-3.3,0.8-4.6,1.7c-2.3,1.6-4.5,3.6-6.6,5.6c-1.4,1.4-1.1,2.8,0.8,3.2c1.5,0.4,3.2,0.5,4.7,0.1
			c4.3-1,7.7,0.3,10.7,3.3c1.4,1.4,3.4,2.1,5.2,3c0.4,0.2,1.2,0,1.7-0.3c1.3-0.7,2.1-0.5,3,1.4c-2.9-0.6-3.5,2.1-5.2,3.2
			c-2,1.4-4,2.7-6.3,3.5c-5.4,2-11,2.5-16.6,0.9c-1.1-0.3-2.1-0.8-3.1-1.3c11.7,3.3,24,0.6,27.2-6.1c-0.3-0.1-0.5-0.4-0.8-0.4
			c-2.4-0.5-4.4-1.8-6-3.5c-2.5-2.7-5.5-3.6-9.2-2.9c-1.8,0.4-3.7,0.4-5.5-0.1c-2.6-0.6-3.1-2.7-1.3-4.6c2.6-2.7,5.3-5.4,8.9-6.9
			c0.7-0.3,1.5-0.6,0.7-1.5c0.6,0.2,1.2,0.6,1.7,0.5c0.6-0.1,1.2-0.7,1.8-1c-0.3-0.5-0.6-1.1-1-1.3c-1.5-0.9-3.2-1.1-4.9-0.8
			C75.8,125.7,76.6,126.6,77.5,127.5z M73.7,125.3c-0.1-0.2-0.2-0.4-0.2-0.6c-1.6,0.4-3.2,0.8-4.8,1.2c-0.5,0.1-0.8,0.7-1.2,1
			c0.4,0.5,0.9,1.3,1.3,1.3c0.8,0,1.8-0.2,2.5-0.7C72.2,127,72.9,126.1,73.7,125.3z M64,126.8c0.9-0.6,1.9-0.9,2.2-1.5
			c0.4-0.7-1.3-2.2-2.2-1.9c-0.8,0.3-1.4,1.1-2.2,1.7C62.5,125.6,63.1,126.1,64,126.8z"/>
		<path d="M68.2,147.7c4,0,7.5,0,11.1,0c0.1-0.2,0.1-0.4,0.2-0.6c-1.3-0.9-2.6-2-4.4-1.7c-2.7,0.6-5.2,0.3-7.7-1
			c-0.5-0.3-1.2-0.4-1.8-0.3c-3.2,0.4-6.5,0.5-9.7,1.3c-1.7,0.4-2.5-0.3-3.7-1c0.2-0.2,0.3-0.3,0.4-0.3c4.1,0.8,8-0.5,12-0.8
			c1.3-0.1,2.8,0.2,4.1,0.7c1.8,0.7,3.5,1.1,5.4,0.7c1-0.2,2.3-0.1,3.1,0.4c2.6,1.7,5.3,2.5,8.4,2.4C79.9,148,74.3,149.6,68.2,147.7
			z"/>
	</g>
</g>
<g>
	<path class="st6" d="M92.4,15.4c0.3,2.8,0.5,5.7,0.8,8.5c0.1,0.7,0.1,1.4,0.2,2.1c0.2,1.9,1.2,2.9,3.1,3.1c3.3,0.4,6.7,0.7,10,1
		c0.2,0,0.4,0.1,0.6,0.3c-0.3,0.1-0.7,0.1-1,0.2c-3.1,0.3-6.3,0.6-9.4,0.9c-2.2,0.2-3.2,1.2-3.4,3.4c-0.3,3.3-0.7,6.5-1,9.8
		c0,0.2-0.1,0.4-0.3,0.6c-0.1-0.4-0.1-0.7-0.2-1.1c-0.3-3.1-0.6-6.1-0.9-9.2c-0.2-2.5-1.1-3.3-3.6-3.5c-3-0.3-6.1-0.6-9.1-0.9
		c-0.4,0-0.8-0.1-1.1-0.4c1.5-0.2,3-0.3,4.5-0.5c2-0.2,4-0.4,6-0.6c2.2-0.2,3.1-1.1,3.3-3.2c0.3-3.2,0.6-6.3,1-9.5
		c0-0.4,0.1-0.7,0.2-1.1C92.2,15.4,92.3,15.4,92.4,15.4z"/>
</g>
</svg>
